<mxfile host="app.diagrams.net" modified="2022-01-20T07:46:33.420Z" agent="5.0 (Macintosh; Intel Mac OS X 10_15_7) AppleWebKit/537.36 (KHTML, like Gecko) Chrome/97.0.4692.71 Safari/537.36" etag="bUgfGAnXM45nfKeOoaXT" version="16.4.2" type="github">
  <diagram id="1yzQ9n3bX9XZIDNbpLdn" name="Page-1">
    <mxGraphModel dx="1426" dy="794" grid="1" gridSize="10" guides="1" tooltips="1" connect="1" arrows="1" fold="1" page="1" pageScale="1" pageWidth="3300" pageHeight="4681" math="0" shadow="0">
      <root>
        <mxCell id="0" />
        <mxCell id="1" parent="0" />
        <mxCell id="QTsBgi_JLnD7-ttwWDAb-37" value="&lt;font color=&quot;#330000&quot;&gt;Chart 组件&lt;br&gt;&lt;br&gt;&lt;br&gt;&lt;br&gt;&lt;br&gt;&lt;br&gt;&lt;br&gt;&lt;br&gt;&lt;br&gt;&lt;br&gt;&lt;br&gt;&lt;br&gt;&lt;br&gt;&lt;br&gt;&lt;br&gt;&lt;br&gt;&lt;br&gt;&lt;br&gt;&lt;br&gt;&lt;br&gt;&lt;br&gt;&lt;br&gt;&lt;br&gt;&lt;br&gt;&lt;br&gt;&lt;br&gt;&lt;/font&gt;" style="rounded=0;whiteSpace=wrap;html=1;fontColor=#FF6666;" parent="1" vertex="1">
          <mxGeometry x="480" y="50" width="650" height="385" as="geometry" />
        </mxCell>
        <mxCell id="QTsBgi_JLnD7-ttwWDAb-19" value="FilterBoxMini 插件&lt;br&gt;&lt;br&gt;&lt;br&gt;&lt;br&gt;&lt;br&gt;&lt;br&gt;&lt;br&gt;" style="rounded=0;whiteSpace=wrap;html=1;fontColor=#330000;" parent="1" vertex="1">
          <mxGeometry x="130" y="50" width="320" height="135" as="geometry" />
        </mxCell>
        <mxCell id="QTsBgi_JLnD7-ttwWDAb-15" value="2" style="edgeStyle=orthogonalEdgeStyle;rounded=0;orthogonalLoop=1;jettySize=auto;html=1;exitX=1;exitY=0.5;exitDx=0;exitDy=0;fontColor=#330000;" parent="1" source="QTsBgi_JLnD7-ttwWDAb-7" target="QTsBgi_JLnD7-ttwWDAb-13" edge="1">
          <mxGeometry relative="1" as="geometry" />
        </mxCell>
        <mxCell id="QTsBgi_JLnD7-ttwWDAb-3" value="filter change&lt;br&gt;" style="verticalLabelPosition=bottom;verticalAlign=top;html=1;strokeWidth=2;shape=mxgraph.arrows2.arrow;dy=0.6;dx=40;notch=0;" parent="1" vertex="1">
          <mxGeometry x="50" y="105" width="70" height="30" as="geometry" />
        </mxCell>
        <mxCell id="QTsBgi_JLnD7-ttwWDAb-6" value="" style="endArrow=classic;html=1;rounded=0;entryX=0;entryY=0.5;entryDx=0;entryDy=0;" parent="1" target="QTsBgi_JLnD7-ttwWDAb-4" edge="1">
          <mxGeometry width="50" height="50" relative="1" as="geometry">
            <mxPoint x="120" y="120" as="sourcePoint" />
            <mxPoint x="170" y="70" as="targetPoint" />
          </mxGeometry>
        </mxCell>
        <mxCell id="QTsBgi_JLnD7-ttwWDAb-13" value="&lt;font color=&quot;#330000&quot;&gt;chart/ChartRender.jsx&lt;/font&gt;&lt;br&gt;&lt;div style=&quot;background-color: rgb(255 , 255 , 255) ; font-family: &amp;#34;menlo&amp;#34; , &amp;#34;monaco&amp;#34; , &amp;#34;courier new&amp;#34; , monospace ; line-height: 18px&quot;&gt;&lt;div style=&quot;text-align: left&quot;&gt;&lt;font color=&quot;#330000&quot;&gt;this.hooks ={&lt;/font&gt;&lt;span style=&quot;text-align: center&quot;&gt;onAddFilter&lt;/span&gt;&lt;span style=&quot;text-align: center&quot;&gt;:&lt;/span&gt;&lt;span style=&quot;text-align: center&quot;&gt;this&lt;/span&gt;&lt;span style=&quot;text-align: center&quot;&gt;.&lt;/span&gt;&lt;span style=&quot;text-align: center&quot;&gt;handleAddFilter&lt;font color=&quot;#330000&quot;&gt;}&lt;/font&gt;&lt;/span&gt;&lt;/div&gt;&lt;div style=&quot;text-align: left&quot;&gt;&lt;div style=&quot;font-family: &amp;#34;menlo&amp;#34; , &amp;#34;monaco&amp;#34; , &amp;#34;courier new&amp;#34; , monospace ; line-height: 18px&quot;&gt;&lt;font color=&quot;#330000&quot;&gt;handleAddFilter(){this.props.&lt;/font&gt;addFilter&lt;font color=&quot;#330000&quot;&gt;();}&lt;/font&gt;&lt;/div&gt;&lt;/div&gt;&lt;/div&gt;" style="rounded=0;whiteSpace=wrap;html=1;fontColor=#FF6666;" parent="1" vertex="1">
          <mxGeometry x="500" y="70" width="340" height="80" as="geometry" />
        </mxCell>
        <mxCell id="QTsBgi_JLnD7-ttwWDAb-17" value="" style="endArrow=classic;html=1;rounded=0;fontColor=#330000;entryX=0;entryY=0.5;entryDx=0;entryDy=0;exitX=1;exitY=0.5;exitDx=0;exitDy=0;" parent="1" source="QTsBgi_JLnD7-ttwWDAb-13" target="QTsBgi_JLnD7-ttwWDAb-16" edge="1">
          <mxGeometry width="50" height="50" relative="1" as="geometry">
            <mxPoint x="820" y="120" as="sourcePoint" />
            <mxPoint x="870" y="70" as="targetPoint" />
          </mxGeometry>
        </mxCell>
        <mxCell id="QTsBgi_JLnD7-ttwWDAb-81" value="3" style="edgeLabel;html=1;align=center;verticalAlign=middle;resizable=0;points=[];fontColor=#330000;" parent="QTsBgi_JLnD7-ttwWDAb-17" vertex="1" connectable="0">
          <mxGeometry x="-0.0815" relative="1" as="geometry">
            <mxPoint as="offset" />
          </mxGeometry>
        </mxCell>
        <mxCell id="QTsBgi_JLnD7-ttwWDAb-27" value="dashboard/components/gridComponents/Chart.jsx&lt;br&gt;&lt;div style=&quot;background-color: rgb(255 , 255 , 255) ; font-family: &amp;#34;menlo&amp;#34; , &amp;#34;monaco&amp;#34; , &amp;#34;courier new&amp;#34; , monospace ; line-height: 18px&quot;&gt;&lt;font color=&quot;#ff6666&quot;&gt; addFilter =&amp;nbsp;this.changeFilter&lt;/font&gt;&lt;/div&gt;&lt;div style=&quot;background-color: rgb(255 , 255 , 255) ; font-family: &amp;#34;menlo&amp;#34; , &amp;#34;monaco&amp;#34; , &amp;#34;courier new&amp;#34; , monospace ; line-height: 18px&quot;&gt;this.changeFilter(){this.props.&lt;font color=&quot;#ff6666&quot;&gt;changeFilter&lt;/font&gt;}&lt;/div&gt;" style="rounded=0;whiteSpace=wrap;html=1;fontColor=#330000;align=center;" parent="1" vertex="1">
          <mxGeometry x="1205" y="160" width="330" height="70" as="geometry" />
        </mxCell>
        <mxCell id="QTsBgi_JLnD7-ttwWDAb-28" value="" style="endArrow=classic;html=1;rounded=0;fontColor=#330000;exitX=1;exitY=0.5;exitDx=0;exitDy=0;entryX=0.5;entryY=0;entryDx=0;entryDy=0;" parent="1" source="QTsBgi_JLnD7-ttwWDAb-16" target="QTsBgi_JLnD7-ttwWDAb-27" edge="1">
          <mxGeometry width="50" height="50" relative="1" as="geometry">
            <mxPoint x="1020" y="155" as="sourcePoint" />
            <mxPoint x="1050" y="200" as="targetPoint" />
          </mxGeometry>
        </mxCell>
        <mxCell id="QTsBgi_JLnD7-ttwWDAb-63" value="引用Chart组件" style="edgeLabel;html=1;align=center;verticalAlign=middle;resizable=0;points=[];fontColor=#330000;" parent="QTsBgi_JLnD7-ttwWDAb-28" vertex="1" connectable="0">
          <mxGeometry x="-0.1165" y="1" relative="1" as="geometry">
            <mxPoint as="offset" />
          </mxGeometry>
        </mxCell>
        <mxCell id="QTsBgi_JLnD7-ttwWDAb-82" value="4" style="edgeLabel;html=1;align=center;verticalAlign=middle;resizable=0;points=[];fontColor=#330000;" parent="QTsBgi_JLnD7-ttwWDAb-28" vertex="1" connectable="0">
          <mxGeometry x="-0.5517" y="-1" relative="1" as="geometry">
            <mxPoint as="offset" />
          </mxGeometry>
        </mxCell>
        <mxCell id="QTsBgi_JLnD7-ttwWDAb-30" value="5" style="endArrow=classic;html=1;rounded=0;fontColor=#330000;exitX=0.5;exitY=1;exitDx=0;exitDy=0;entryX=0.5;entryY=0;entryDx=0;entryDy=0;" parent="1" source="QTsBgi_JLnD7-ttwWDAb-27" target="QTsBgi_JLnD7-ttwWDAb-29" edge="1">
          <mxGeometry width="50" height="50" relative="1" as="geometry">
            <mxPoint x="915" y="310" as="sourcePoint" />
            <mxPoint x="965" y="260" as="targetPoint" />
          </mxGeometry>
        </mxCell>
        <mxCell id="QTsBgi_JLnD7-ttwWDAb-35" style="edgeStyle=orthogonalEdgeStyle;rounded=0;orthogonalLoop=1;jettySize=auto;html=1;exitX=0.5;exitY=1;exitDx=0;exitDy=0;fontColor=#FF6666;" parent="1" source="QTsBgi_JLnD7-ttwWDAb-31" target="QTsBgi_JLnD7-ttwWDAb-33" edge="1">
          <mxGeometry relative="1" as="geometry" />
        </mxCell>
        <mxCell id="QTsBgi_JLnD7-ttwWDAb-83" value="7" style="edgeLabel;html=1;align=center;verticalAlign=middle;resizable=0;points=[];fontColor=#330000;" parent="QTsBgi_JLnD7-ttwWDAb-35" vertex="1" connectable="0">
          <mxGeometry x="0.0756" y="-3" relative="1" as="geometry">
            <mxPoint as="offset" />
          </mxGeometry>
        </mxCell>
        <mxCell id="QTsBgi_JLnD7-ttwWDAb-31" value="dashboard/actions/dashboardFilter.js&lt;br&gt;redux action&lt;br&gt;&lt;font color=&quot;#ff6666&quot;&gt;changeFilter(){&amp;nbsp; dispatch( {&lt;span style=&quot;font-family: &amp;#34;menlo&amp;#34; , &amp;#34;monaco&amp;#34; , &amp;#34;courier new&amp;#34; , monospace&quot;&gt;type&lt;/span&gt;&lt;span style=&quot;font-family: &amp;#34;menlo&amp;#34; , &amp;#34;monaco&amp;#34; , &amp;#34;courier new&amp;#34; , monospace&quot;&gt;:&lt;/span&gt;&lt;span style=&quot;font-family: &amp;#34;menlo&amp;#34; , &amp;#34;monaco&amp;#34; , &amp;#34;courier new&amp;#34; , monospace&quot;&gt;CHANGE_FILTER&lt;/span&gt;} ) }&lt;/font&gt;" style="rounded=0;whiteSpace=wrap;html=1;fontColor=#330000;" parent="1" vertex="1">
          <mxGeometry x="1205" y="480" width="330" height="60" as="geometry" />
        </mxCell>
        <mxCell id="QTsBgi_JLnD7-ttwWDAb-32" value="6" style="endArrow=classic;html=1;rounded=0;fontColor=#330000;exitX=0.5;exitY=1;exitDx=0;exitDy=0;entryX=0.5;entryY=0;entryDx=0;entryDy=0;" parent="1" source="QTsBgi_JLnD7-ttwWDAb-64" target="QTsBgi_JLnD7-ttwWDAb-31" edge="1">
          <mxGeometry width="50" height="50" relative="1" as="geometry">
            <mxPoint x="915" y="430" as="sourcePoint" />
            <mxPoint x="1365" y="380" as="targetPoint" />
          </mxGeometry>
        </mxCell>
        <mxCell id="QTsBgi_JLnD7-ttwWDAb-33" value="dashboard/reducers/dashboardFilter.js&lt;br&gt;redux reducers&lt;br&gt;&lt;div style=&quot;background-color: rgb(255 , 255 , 255) ; font-family: &amp;#34;menlo&amp;#34; , &amp;#34;monaco&amp;#34; , &amp;#34;courier new&amp;#34; , monospace ; line-height: 18px&quot;&gt;&lt;font color=&quot;#ff6666&quot;&gt;执行 CHANGE_FILTER 并更新&amp;nbsp;buildActiveFilters&lt;/font&gt;&lt;/div&gt;" style="rounded=0;whiteSpace=wrap;html=1;fontColor=#330000;" parent="1" vertex="1">
          <mxGeometry x="1190" y="590" width="360" height="60" as="geometry" />
        </mxCell>
        <mxCell id="QTsBgi_JLnD7-ttwWDAb-9" value="&lt;font color=&quot;#330000&quot;&gt;1&lt;/font&gt;" style="endArrow=classic;html=1;rounded=0;fontColor=#FF6666;entryX=0;entryY=0.5;entryDx=0;entryDy=0;" parent="1" target="QTsBgi_JLnD7-ttwWDAb-7" edge="1">
          <mxGeometry width="50" height="50" relative="1" as="geometry">
            <mxPoint x="280" y="102.5" as="sourcePoint" />
            <mxPoint x="330" y="52.5" as="targetPoint" />
          </mxGeometry>
        </mxCell>
        <mxCell id="QTsBgi_JLnD7-ttwWDAb-4" value="FilterBox.jsx&lt;br&gt;&lt;font color=&quot;#ff6666&quot;&gt;this.props.onchange&lt;/font&gt;" style="rounded=0;whiteSpace=wrap;html=1;" parent="1" vertex="1">
          <mxGeometry x="160" y="87.5" width="120" height="60" as="geometry" />
        </mxCell>
        <mxCell id="QTsBgi_JLnD7-ttwWDAb-7" value="transformProps.js&lt;br&gt;&lt;div style=&quot;background-color: rgb(255 , 255 , 255) ; font-family: &amp;#34;menlo&amp;#34; , &amp;#34;monaco&amp;#34; , &amp;#34;courier new&amp;#34; , monospace ; line-height: 18px&quot;&gt;&lt;font color=&quot;#ff6666&quot;&gt;onChange: onAddFilter&lt;/font&gt;&lt;/div&gt;" style="rounded=0;whiteSpace=wrap;html=1;" parent="1" vertex="1">
          <mxGeometry x="320" y="87.5" width="120" height="60" as="geometry" />
        </mxCell>
        <mxCell id="QTsBgi_JLnD7-ttwWDAb-43" value="" style="shape=flexArrow;endArrow=classic;html=1;rounded=0;fontColor=#FF6666;exitX=0;exitY=0.5;exitDx=0;exitDy=0;entryX=1;entryY=0.5;entryDx=0;entryDy=0;dashed=1;" parent="1" source="QTsBgi_JLnD7-ttwWDAb-33" target="QTsBgi_JLnD7-ttwWDAb-42" edge="1">
          <mxGeometry width="50" height="50" relative="1" as="geometry">
            <mxPoint x="660" y="410" as="sourcePoint" />
            <mxPoint x="710" y="360" as="targetPoint" />
          </mxGeometry>
        </mxCell>
        <mxCell id="QTsBgi_JLnD7-ttwWDAb-44" value="8.触发 redux 更新" style="edgeLabel;html=1;align=center;verticalAlign=middle;resizable=0;points=[];fontColor=#330000;" parent="QTsBgi_JLnD7-ttwWDAb-43" vertex="1" connectable="0">
          <mxGeometry x="0.2397" y="1" relative="1" as="geometry">
            <mxPoint y="1" as="offset" />
          </mxGeometry>
        </mxCell>
        <mxCell id="QTsBgi_JLnD7-ttwWDAb-46" value="&lt;font color=&quot;#330000&quot;&gt;dashboard/components/Dashboard.jsx&lt;br&gt;|&lt;br&gt;&lt;/font&gt;&lt;div style=&quot;color: rgb(0 , 0 , 0) ; background-color: rgb(255 , 255 , 255) ; font-family: &amp;#34;menlo&amp;#34; , &amp;#34;monaco&amp;#34; , &amp;#34;courier new&amp;#34; , monospace ; line-height: 18px&quot;&gt;&lt;span style=&quot;color: #795e26&quot;&gt;componentDidUpdate&lt;/span&gt;&lt;/div&gt;&lt;div style=&quot;background-color: rgb(255 , 255 , 255) ; font-family: &amp;#34;menlo&amp;#34; , &amp;#34;monaco&amp;#34; , &amp;#34;courier new&amp;#34; , monospace ; line-height: 18px&quot;&gt;&lt;font color=&quot;#795e26&quot;&gt;|&lt;/font&gt;&lt;/div&gt;&lt;div style=&quot;color: rgb(0 , 0 , 0) ; background-color: rgb(255 , 255 , 255) ; font-family: &amp;#34;menlo&amp;#34; , &amp;#34;monaco&amp;#34; , &amp;#34;courier new&amp;#34; , monospace ; line-height: 18px&quot;&gt;&lt;span style=&quot;color: #795e26&quot;&gt;this.applyFilters()&lt;/span&gt;&lt;/div&gt;&lt;div style=&quot;color: rgb(0 , 0 , 0) ; background-color: rgb(255 , 255 , 255) ; font-family: &amp;#34;menlo&amp;#34; , &amp;#34;monaco&amp;#34; , &amp;#34;courier new&amp;#34; , monospace ; line-height: 18px&quot;&gt;&lt;span style=&quot;color: #795e26&quot;&gt;|&lt;/span&gt;&lt;/div&gt;&lt;div style=&quot;color: rgb(0 , 0 , 0) ; background-color: rgb(255 , 255 , 255) ; font-family: &amp;#34;menlo&amp;#34; , &amp;#34;monaco&amp;#34; , &amp;#34;courier new&amp;#34; , monospace ; line-height: 18px&quot;&gt;&lt;div style=&quot;font-family: &amp;#34;menlo&amp;#34; , &amp;#34;monaco&amp;#34; , &amp;#34;courier new&amp;#34; , monospace ; line-height: 18px&quot;&gt;&lt;span style=&quot;color: #0000ff&quot;&gt;this&lt;/span&gt;.&lt;span style=&quot;color: #0070c1&quot;&gt;props&lt;/span&gt;.&lt;span style=&quot;color: #001080&quot;&gt;actions&lt;/span&gt;.&lt;span style=&quot;color: #795e26&quot;&gt;triggerQuery&lt;/span&gt;(&lt;span style=&quot;color: #0000ff&quot;&gt;true&lt;/span&gt;, &lt;span style=&quot;color: #001080&quot;&gt;id&lt;/span&gt;);&lt;/div&gt;&lt;/div&gt;" style="rounded=0;whiteSpace=wrap;html=1;fontColor=#FF6666;" parent="1" vertex="1">
          <mxGeometry x="580" y="680" width="420" height="130" as="geometry" />
        </mxCell>
        <mxCell id="QTsBgi_JLnD7-ttwWDAb-47" value="" style="endArrow=classic;html=1;rounded=0;fontColor=#330000;exitX=0.441;exitY=1.02;exitDx=0;exitDy=0;exitPerimeter=0;" parent="1" source="QTsBgi_JLnD7-ttwWDAb-42" target="QTsBgi_JLnD7-ttwWDAb-46" edge="1">
          <mxGeometry width="50" height="50" relative="1" as="geometry">
            <mxPoint x="980" y="660" as="sourcePoint" />
            <mxPoint x="1030" y="610" as="targetPoint" />
          </mxGeometry>
        </mxCell>
        <mxCell id="QTsBgi_JLnD7-ttwWDAb-85" value="9" style="edgeLabel;html=1;align=center;verticalAlign=middle;resizable=0;points=[];fontColor=#330000;" parent="QTsBgi_JLnD7-ttwWDAb-47" vertex="1" connectable="0">
          <mxGeometry x="-0.1763" y="-2" relative="1" as="geometry">
            <mxPoint as="offset" />
          </mxGeometry>
        </mxCell>
        <mxCell id="QTsBgi_JLnD7-ttwWDAb-50" value="" style="group" parent="1" vertex="1" connectable="0">
          <mxGeometry x="630" y="550" width="360" height="100" as="geometry" />
        </mxCell>
        <mxCell id="QTsBgi_JLnD7-ttwWDAb-42" value="&lt;div&gt;&lt;span style=&quot;color: rgb(51 , 0 , 0)&quot;&gt;dashboard/containers/Dashboard.jsx&lt;/span&gt;&lt;/div&gt;&lt;span style=&quot;background-color: rgb(255 , 255 , 255) ; font-family: &amp;#34;menlo&amp;#34; , &amp;#34;monaco&amp;#34; , &amp;#34;courier new&amp;#34; , monospace&quot;&gt;&lt;div&gt;mapStateToProps(){ return {&amp;nbsp;activeFilters }}&amp;nbsp;&lt;/div&gt;&lt;div&gt;&lt;div style=&quot;color: rgb(0 , 0 , 0) ; font-family: &amp;#34;menlo&amp;#34; , &amp;#34;monaco&amp;#34; , &amp;#34;courier new&amp;#34; , monospace ; line-height: 18px&quot;&gt;&lt;br&gt;&lt;/div&gt;&lt;/div&gt;&lt;/span&gt;" style="rounded=0;whiteSpace=wrap;html=1;fontColor=#FF6666;align=center;" parent="QTsBgi_JLnD7-ttwWDAb-50" vertex="1">
          <mxGeometry width="360" height="100" as="geometry" />
        </mxCell>
        <mxCell id="QTsBgi_JLnD7-ttwWDAb-48" value="&lt;span style=&quot;font-family: &amp;#34;menlo&amp;#34; , &amp;#34;monaco&amp;#34; , &amp;#34;courier new&amp;#34; , monospace ; background-color: rgb(255 , 255 , 255) ; color: rgb(121 , 94 , 38)&quot;&gt;mapDispatchToProps&amp;nbsp;&lt;/span&gt;&lt;span style=&quot;font-family: &amp;#34;menlo&amp;#34; , &amp;#34;monaco&amp;#34; , &amp;#34;courier new&amp;#34; , monospace ; background-color: rgb(255 , 255 , 255) ; color: rgb(121 , 94 , 38)&quot;&gt;triggerQuery&lt;/span&gt;&lt;span style=&quot;font-family: &amp;#34;menlo&amp;#34; , &amp;#34;monaco&amp;#34; , &amp;#34;courier new&amp;#34; , monospace ; background-color: rgb(255 , 255 , 255) ; color: rgb(121 , 94 , 38)&quot;&gt;&amp;nbsp;&lt;/span&gt;" style="rounded=0;whiteSpace=wrap;html=1;fontColor=#330000;" parent="QTsBgi_JLnD7-ttwWDAb-50" vertex="1">
          <mxGeometry x="60" y="60" width="240" height="30" as="geometry" />
        </mxCell>
        <mxCell id="QTsBgi_JLnD7-ttwWDAb-58" value="11" style="edgeStyle=orthogonalEdgeStyle;rounded=0;orthogonalLoop=1;jettySize=auto;html=1;exitX=0.5;exitY=1;exitDx=0;exitDy=0;entryX=0.5;entryY=0;entryDx=0;entryDy=0;dashed=1;fontColor=#330000;" parent="1" source="QTsBgi_JLnD7-ttwWDAb-53" target="QTsBgi_JLnD7-ttwWDAb-54" edge="1">
          <mxGeometry relative="1" as="geometry" />
        </mxCell>
        <mxCell id="QTsBgi_JLnD7-ttwWDAb-53" value="chart/chartAction.js&lt;br&gt;&lt;div style=&quot;color: rgb(0 , 0 , 0) ; background-color: rgb(255 , 255 , 255) ; font-family: &amp;#34;menlo&amp;#34; , &amp;#34;monaco&amp;#34; , &amp;#34;courier new&amp;#34; , monospace ; line-height: 18px&quot;&gt;&lt;span style=&quot;color: #795e26&quot;&gt;triggerQuery&lt;/span&gt;&lt;/div&gt;&lt;div style=&quot;color: rgb(0 , 0 , 0) ; background-color: rgb(255 , 255 , 255) ; font-family: &amp;#34;menlo&amp;#34; , &amp;#34;monaco&amp;#34; , &amp;#34;courier new&amp;#34; , monospace ; line-height: 18px&quot;&gt;&lt;div style=&quot;font-family: &amp;#34;menlo&amp;#34; , &amp;#34;monaco&amp;#34; , &amp;#34;courier new&amp;#34; , monospace ; line-height: 18px&quot;&gt;&lt;span style=&quot;color: #0070c1&quot;&gt;TRIGGER_QUERY&lt;/span&gt;&lt;/div&gt;&lt;/div&gt;" style="rounded=0;whiteSpace=wrap;html=1;fontColor=#330000;" parent="1" vertex="1">
          <mxGeometry x="520" y="220" width="200" height="60" as="geometry" />
        </mxCell>
        <mxCell id="QTsBgi_JLnD7-ttwWDAb-54" value="chart/chartReducer.js&lt;br&gt;&lt;span style=&quot;color: rgb(0 , 112 , 193) ; font-family: &amp;#34;menlo&amp;#34; , &amp;#34;monaco&amp;#34; , &amp;#34;courier new&amp;#34; , monospace ; background-color: rgb(255 , 255 , 255)&quot;&gt;TRIGGER_QUERY&lt;/span&gt;" style="rounded=0;whiteSpace=wrap;html=1;fontColor=#330000;" parent="1" vertex="1">
          <mxGeometry x="520" y="310" width="190" height="70" as="geometry" />
        </mxCell>
        <mxCell id="QTsBgi_JLnD7-ttwWDAb-56" value="" style="curved=1;endArrow=classic;html=1;rounded=0;dashed=1;fontColor=#330000;exitX=0;exitY=0.5;exitDx=0;exitDy=0;entryX=0;entryY=0.5;entryDx=0;entryDy=0;" parent="1" source="QTsBgi_JLnD7-ttwWDAb-46" target="QTsBgi_JLnD7-ttwWDAb-53" edge="1">
          <mxGeometry width="50" height="50" relative="1" as="geometry">
            <mxPoint x="840" y="470" as="sourcePoint" />
            <mxPoint x="890" y="420" as="targetPoint" />
            <Array as="points">
              <mxPoint x="220" y="470" />
              <mxPoint x="410" y="270" />
            </Array>
          </mxGeometry>
        </mxCell>
        <mxCell id="QTsBgi_JLnD7-ttwWDAb-86" value="10" style="edgeLabel;html=1;align=center;verticalAlign=middle;resizable=0;points=[];fontColor=#330000;" parent="QTsBgi_JLnD7-ttwWDAb-56" vertex="1" connectable="0">
          <mxGeometry x="-0.1325" y="-41" relative="1" as="geometry">
            <mxPoint as="offset" />
          </mxGeometry>
        </mxCell>
        <mxCell id="QTsBgi_JLnD7-ttwWDAb-59" value="12.触发redux 更新" style="shape=flexArrow;endArrow=classic;html=1;rounded=0;dashed=1;fontColor=#330000;entryX=0.45;entryY=0.983;entryDx=0;entryDy=0;exitX=1;exitY=0.5;exitDx=0;exitDy=0;entryPerimeter=0;" parent="1" source="QTsBgi_JLnD7-ttwWDAb-54" target="QTsBgi_JLnD7-ttwWDAb-60" edge="1">
          <mxGeometry width="50" height="50" relative="1" as="geometry">
            <mxPoint x="840" y="410" as="sourcePoint" />
            <mxPoint x="890" y="360" as="targetPoint" />
          </mxGeometry>
        </mxCell>
        <mxCell id="QTsBgi_JLnD7-ttwWDAb-65" value="" style="group" parent="1" vertex="1" connectable="0">
          <mxGeometry x="870" y="80" width="170" height="150" as="geometry" />
        </mxCell>
        <mxCell id="QTsBgi_JLnD7-ttwWDAb-16" value="chart/Chart.jsx&lt;br&gt;this.props.&lt;font color=&quot;#ff6666&quot;&gt;addFilter&lt;/font&gt;()" style="rounded=0;whiteSpace=wrap;html=1;fontColor=#330000;" parent="QTsBgi_JLnD7-ttwWDAb-65" vertex="1">
          <mxGeometry width="170" height="60" as="geometry" />
        </mxCell>
        <mxCell id="QTsBgi_JLnD7-ttwWDAb-60" value="&lt;div style=&quot;color: rgb(0 , 0 , 0) ; background-color: rgb(255 , 255 , 255) ; font-family: &amp;#34;menlo&amp;#34; , &amp;#34;monaco&amp;#34; , &amp;#34;courier new&amp;#34; , monospace ; line-height: 18px&quot;&gt;&lt;span style=&quot;color: #795e26&quot;&gt;componentDidUpdate&lt;/span&gt;&lt;/div&gt;&lt;div style=&quot;color: rgb(0 , 0 , 0) ; background-color: rgb(255 , 255 , 255) ; font-family: &amp;#34;menlo&amp;#34; , &amp;#34;monaco&amp;#34; , &amp;#34;courier new&amp;#34; , monospace ; line-height: 18px&quot;&gt;&lt;div style=&quot;font-family: &amp;#34;menlo&amp;#34; , &amp;#34;monaco&amp;#34; , &amp;#34;courier new&amp;#34; , monospace ; line-height: 18px&quot;&gt;&lt;span style=&quot;color: #795e26&quot;&gt;runQuery&lt;/span&gt;&lt;/div&gt;&lt;div style=&quot;font-family: &amp;#34;menlo&amp;#34; , &amp;#34;monaco&amp;#34; , &amp;#34;courier new&amp;#34; , monospace ; line-height: 18px&quot;&gt;&lt;span style=&quot;color: #795e26&quot;&gt;|&lt;/span&gt;&lt;/div&gt;&lt;div style=&quot;font-family: &amp;#34;menlo&amp;#34; , &amp;#34;monaco&amp;#34; , &amp;#34;courier new&amp;#34; , monospace ; line-height: 18px&quot;&gt;&lt;div style=&quot;font-family: &amp;#34;menlo&amp;#34; , &amp;#34;monaco&amp;#34; , &amp;#34;courier new&amp;#34; , monospace ; line-height: 18px&quot;&gt;&lt;span style=&quot;color: #001080&quot;&gt;this.props.formData&lt;/span&gt;&lt;/div&gt;&lt;/div&gt;&lt;/div&gt;" style="rounded=0;whiteSpace=wrap;html=1;fontColor=#330000;" parent="QTsBgi_JLnD7-ttwWDAb-65" vertex="1">
          <mxGeometry y="60" width="170" height="90" as="geometry" />
        </mxCell>
        <mxCell id="QTsBgi_JLnD7-ttwWDAb-68" value="" style="group" parent="1" vertex="1" connectable="0">
          <mxGeometry x="1200" y="270" width="340" height="140" as="geometry" />
        </mxCell>
        <mxCell id="QTsBgi_JLnD7-ttwWDAb-29" value="dashboard/containers/Chart.jsx&lt;br&gt;redux 绑定&lt;br&gt;&lt;div style=&quot;background-color: rgb(255 , 255 , 255) ; font-family: &amp;#34;menlo&amp;#34; , &amp;#34;monaco&amp;#34; , &amp;#34;courier new&amp;#34; , monospace ; line-height: 18px&quot;&gt;mapDispatchToProps&lt;span style=&quot;color: rgb(121 , 94 , 38)&quot;&gt;&amp;nbsp;&lt;/span&gt;&lt;span style=&quot;font-family: &amp;#34;menlo&amp;#34; , &amp;#34;monaco&amp;#34; , &amp;#34;courier new&amp;#34; , monospace&quot;&gt;&lt;font color=&quot;#ff6666&quot;&gt;changeFilter&lt;/font&gt;&lt;/span&gt;&lt;/div&gt;" style="rounded=0;whiteSpace=wrap;html=1;fontColor=#330000;" parent="QTsBgi_JLnD7-ttwWDAb-68" vertex="1">
          <mxGeometry width="340" height="70" as="geometry" />
        </mxCell>
        <mxCell id="QTsBgi_JLnD7-ttwWDAb-64" value="&lt;div style=&quot;color: rgb(0 , 0 , 0) ; background-color: rgb(255 , 255 , 255) ; font-family: &amp;#34;menlo&amp;#34; , &amp;#34;monaco&amp;#34; , &amp;#34;courier new&amp;#34; , monospace ; line-height: 18px&quot;&gt;&lt;div style=&quot;font-family: &amp;#34;menlo&amp;#34; , &amp;#34;monaco&amp;#34; , &amp;#34;courier new&amp;#34; , monospace ; line-height: 18px&quot;&gt;&lt;span style=&quot;color: #795e26&quot;&gt;mapStateToProps&lt;/span&gt;&lt;/div&gt;&lt;/div&gt;&lt;div style=&quot;color: rgb(0 , 0 , 0) ; background-color: rgb(255 , 255 , 255) ; font-family: &amp;#34;menlo&amp;#34; , &amp;#34;monaco&amp;#34; , &amp;#34;courier new&amp;#34; , monospace ; line-height: 18px&quot;&gt;&lt;span style=&quot;color: rgb(0 , 112 , 193) ; font-family: &amp;#34;menlo&amp;#34; , &amp;#34;monaco&amp;#34; , &amp;#34;courier new&amp;#34; , monospace&quot;&gt;formData=&lt;/span&gt;&lt;span style=&quot;color: #795e26&quot;&gt;getFormDataWithExtraFilters(&lt;/span&gt;&lt;span style=&quot;font-family: &amp;#34;menlo&amp;#34; , &amp;#34;monaco&amp;#34; , &amp;#34;courier new&amp;#34; , monospace ; color: rgb(0 , 16 , 128)&quot;&gt;filters&lt;/span&gt;&lt;span style=&quot;font-family: &amp;#34;menlo&amp;#34; , &amp;#34;monaco&amp;#34; , &amp;#34;courier new&amp;#34; , monospace ; color: rgb(0 , 16 , 128)&quot;&gt;:&lt;/span&gt;&lt;span style=&quot;font-family: &amp;#34;menlo&amp;#34; , &amp;#34;monaco&amp;#34; , &amp;#34;courier new&amp;#34; , monospace&quot;&gt; &lt;/span&gt;&lt;span style=&quot;font-family: &amp;#34;menlo&amp;#34; , &amp;#34;monaco&amp;#34; , &amp;#34;courier new&amp;#34; , monospace ; color: rgb(121 , 94 , 38)&quot;&gt;getAppliedFilterValues&lt;/span&gt;&lt;span style=&quot;font-family: &amp;#34;menlo&amp;#34; , &amp;#34;monaco&amp;#34; , &amp;#34;courier new&amp;#34; , monospace&quot;&gt;(&lt;/span&gt;&lt;span style=&quot;font-family: &amp;#34;menlo&amp;#34; , &amp;#34;monaco&amp;#34; , &amp;#34;courier new&amp;#34; , monospace ; color: rgb(0 , 112 , 193)&quot;&gt;id&lt;/span&gt;&lt;span style=&quot;font-family: &amp;#34;menlo&amp;#34; , &amp;#34;monaco&amp;#34; , &amp;#34;courier new&amp;#34; , monospace&quot;&gt;)&lt;/span&gt;&lt;span style=&quot;color: rgb(121 , 94 , 38)&quot;&gt;)&lt;/span&gt;&lt;/div&gt;" style="rounded=0;whiteSpace=wrap;html=1;fontColor=#330000;" parent="QTsBgi_JLnD7-ttwWDAb-68" vertex="1">
          <mxGeometry y="70" width="340" height="70" as="geometry" />
        </mxCell>
        <mxCell id="QTsBgi_JLnD7-ttwWDAb-70" value="" style="shape=link;endArrow=classic;startArrow=classic;html=1;rounded=0;fontColor=#330000;exitX=1;exitY=1;exitDx=0;exitDy=0;entryX=0;entryY=0.75;entryDx=0;entryDy=0;dashed=1;" parent="1" source="QTsBgi_JLnD7-ttwWDAb-60" target="QTsBgi_JLnD7-ttwWDAb-64" edge="1">
          <mxGeometry width="100" height="100" relative="1" as="geometry">
            <mxPoint x="1160" y="400" as="sourcePoint" />
            <mxPoint x="1260" y="300" as="targetPoint" />
          </mxGeometry>
        </mxCell>
        <mxCell id="QTsBgi_JLnD7-ttwWDAb-88" value="13" style="edgeLabel;html=1;align=center;verticalAlign=middle;resizable=0;points=[];fontColor=#330000;" parent="QTsBgi_JLnD7-ttwWDAb-70" vertex="1" connectable="0">
          <mxGeometry x="-0.1763" y="6" relative="1" as="geometry">
            <mxPoint y="-1" as="offset" />
          </mxGeometry>
        </mxCell>
        <mxCell id="QTsBgi_JLnD7-ttwWDAb-71" value="dashboard/util/charts/getFormDataWithExtraFilters.ts&lt;br&gt;&lt;div style=&quot;color: rgb(0 , 0 , 0) ; background-color: rgb(255 , 255 , 255) ; font-family: &amp;#34;menlo&amp;#34; , &amp;#34;monaco&amp;#34; , &amp;#34;courier new&amp;#34; , monospace ; line-height: 18px&quot;&gt;&lt;span style=&quot;color: #795e26&quot;&gt;getFormDataWithExtraFilters&lt;/span&gt;&lt;/div&gt;&lt;div style=&quot;color: rgb(0 , 0 , 0) ; background-color: rgb(255 , 255 , 255) ; font-family: &amp;#34;menlo&amp;#34; , &amp;#34;monaco&amp;#34; , &amp;#34;courier new&amp;#34; , monospace ; line-height: 18px&quot;&gt;&lt;div style=&quot;line-height: 18px&quot;&gt;&lt;span style=&quot;color: #001080&quot;&gt;extra_filters&lt;/span&gt;&lt;span style=&quot;color: #001080&quot;&gt;:&lt;/span&gt;&lt;span style=&quot;color: #795e26&quot;&gt;getEffectiveExtraFilters&lt;/span&gt;(&lt;span style=&quot;color: #001080&quot;&gt;filters&lt;/span&gt;)&lt;/div&gt;&lt;/div&gt;" style="rounded=0;whiteSpace=wrap;html=1;fontColor=#330000;" parent="1" vertex="1">
          <mxGeometry x="1630" y="420" width="370" height="70" as="geometry" />
        </mxCell>
        <mxCell id="QTsBgi_JLnD7-ttwWDAb-72" value="&lt;span&gt;dashboard/util/charts/getEffectiveExtraFilters.ts&lt;br&gt;&lt;/span&gt;&lt;div style=&quot;color: rgb(0 , 0 , 0) ; background-color: rgb(255 , 255 , 255) ; font-family: &amp;#34;menlo&amp;#34; , &amp;#34;monaco&amp;#34; , &amp;#34;courier new&amp;#34; , monospace ; line-height: 18px&quot;&gt;&lt;span style=&quot;color: #795e26&quot;&gt;getEffectiveExtraFilters()&lt;/span&gt;&lt;/div&gt;" style="rounded=0;whiteSpace=wrap;html=1;fontColor=#330000;" parent="1" vertex="1">
          <mxGeometry x="1630" y="540" width="380" height="70" as="geometry" />
        </mxCell>
        <mxCell id="QTsBgi_JLnD7-ttwWDAb-75" value="" style="endArrow=none;html=1;rounded=0;fontColor=#330000;entryX=0;entryY=0.5;entryDx=0;entryDy=0;exitX=1;exitY=0.5;exitDx=0;exitDy=0;startArrow=classic;startFill=1;endFill=0;" parent="1" source="QTsBgi_JLnD7-ttwWDAb-64" target="QTsBgi_JLnD7-ttwWDAb-71" edge="1">
          <mxGeometry width="50" height="50" relative="1" as="geometry">
            <mxPoint x="1540" y="380" as="sourcePoint" />
            <mxPoint x="1590" y="330" as="targetPoint" />
          </mxGeometry>
        </mxCell>
        <mxCell id="QTsBgi_JLnD7-ttwWDAb-89" value="14" style="edgeLabel;html=1;align=center;verticalAlign=middle;resizable=0;points=[];fontColor=#330000;" parent="QTsBgi_JLnD7-ttwWDAb-75" vertex="1" connectable="0">
          <mxGeometry x="0.0608" y="1" relative="1" as="geometry">
            <mxPoint y="1" as="offset" />
          </mxGeometry>
        </mxCell>
        <mxCell id="QTsBgi_JLnD7-ttwWDAb-77" value="15" style="endArrow=none;html=1;rounded=0;fontColor=#330000;exitX=0.5;exitY=1;exitDx=0;exitDy=0;startArrow=classic;startFill=1;endFill=0;" parent="1" source="QTsBgi_JLnD7-ttwWDAb-71" edge="1">
          <mxGeometry width="50" height="50" relative="1" as="geometry">
            <mxPoint x="1220" y="550" as="sourcePoint" />
            <mxPoint x="1815" y="540" as="targetPoint" />
          </mxGeometry>
        </mxCell>
        <mxCell id="QJcaSf_zx0Kz2pFoY2SW-2" value="superset Dashboard中 filter chart 更新 其它chart 流程图" style="rounded=0;whiteSpace=wrap;html=1;" vertex="1" parent="1">
          <mxGeometry x="720" y="10" width="520" height="30" as="geometry" />
        </mxCell>
      </root>
    </mxGraphModel>
  </diagram>
</mxfile>
